<svg width="1435" height="202" viewBox="0 0 1435 202" fill="none" xmlns="http://www.w3.org/2000/svg">
<path d="M1216 98.6666V190.667H1321.33H1426.67V98.6666V6.66662H1321.33H1216V98.6666ZM1268.67 99.3333V170L1257.07 170.4L1245.33 170.8V100.267C1245.33 61.4666 1245.73 29.3333 1246.27 28.8C1246.8 28.2666 1252 28.1333 1258 28.2666L1268.67 28.6666V99.3333ZM1403.73 36.6666C1404.4 50.5333 1404.4 50.6666 1391.33 50.6666H1380V110.667V170.667H1368.67H1357.33V110.667V50.8L1346.4 50.4L1335.33 50L1334.93 38.9333L1334.53 28L1368.93 28.2666L1403.33 28.6666L1403.73 36.6666Z" fill="#1A6D18"/>
<path d="M25.7333 28C8.79998 31.4667 0.133317 44.9333 1.59998 65.3333C2.66665 79.7333 6.93332 87.2 24.6667 105.333C33.0667 114 40.9333 123.2 42 125.733C44 130.667 44.6667 142 43.2 146C41.8667 149.333 34.9333 152.267 30.5333 151.333C25.2 150.133 22.8 146 21.8667 136.267L20.9333 128H10.9333H1.06665L1.59998 139.733C2.53332 160.4 11.3333 170.533 29.6 171.733C42.4 172.533 49.6 170.4 56.6667 163.867C64.4 156.8 67.2 147.733 66.4 132.8C65.6 116.4 61.8667 109.733 43.0667 91.2C27.2 75.4667 24 70.5333 24 60.9333C24 52.9333 27.8667 48 34.1333 48C41.3333 48 45.3333 52.8 45.3333 61.3333V68H56.1333H67.0667L66.2667 58.8C65.0667 44 60.4 35.7333 50.6667 30.6667C44.9333 27.7333 33.2 26.4 25.7333 28Z" fill="black"/>
<path d="M157.733 28C149.867 29.6 144.667 32.6667 140.933 37.6C134.267 46.5333 134 49.3333 134 100C134 153.6 134.4 155.733 144 164.533C150 170 156.267 172 167.467 172C178.933 172 188.533 166.933 194 158.133C197.867 151.867 198 150.667 198.533 134.4L198.933 117.333H188.133H177.333V131.2C177.333 146.8 175.867 150 168.4 151.467C164.8 152.133 163.467 151.6 160 148.267L155.867 144.133L156.267 98.5333L156.667 53.0667L159.867 50.5333C164.133 47.0667 170.8 47.2 174.4 51.0667C176.8 53.6 177.333 55.7333 177.333 63.6C177.333 77.4667 177.2 77.3333 188.8 77.3333H198.667V65.6C198.667 46.1333 193.733 35.6 182.133 30.1333C176.667 27.6 164.8 26.5333 157.733 28Z" fill="black"/>
<path d="M652.4 28C642.133 30.1333 636.133 34.6667 631.2 44C629.2 47.6 628.667 51.6 628.667 62C628.667 80 630.8 84.1333 650.933 104.933C659.6 113.867 667.6 123.2 668.667 125.867C670.667 130.667 671.333 142 669.867 146C668.533 149.333 661.6 152.267 657.2 151.333C651.867 150.133 649.467 146 648.533 136.267L647.6 128H637.867H628V137.467C628 150.267 630.133 156.8 636.667 163.467C643.2 170.267 650.4 172.533 663.333 171.733C684.533 170.4 694.4 157.467 693.067 132.667C692.267 116.4 688.4 109.733 669.733 91.2C661.2 82.8 653.867 74.2666 652.667 71.6C647.733 59.8666 651.867 48 660.667 48C667.733 48 670.933 51.6 671.733 60.4L672.267 68H682.8H693.333V61.6C693.333 47.6 687.2 35.7333 677.467 30.8C671.6 27.7333 659.867 26.4 652.4 28Z" fill="black"/>
<path d="M783.067 28C772.8 30.1333 766.8 34.6667 761.867 44C759.867 47.6 759.333 51.6 759.333 62C759.333 80.4 762 85.4666 781.333 104.667C798 121.333 801.333 126.667 801.333 137.733C801.333 146 798.933 149.867 792.8 151.467C784.8 153.467 778.933 146 778.8 133.6L778.667 127.867L768.4 128.267L758 128.667L758.267 137.333C758.8 150.267 761.067 156.933 767.2 163.467C773.867 170.267 780.933 172.533 794 171.733C815.067 170.4 825.067 157.333 823.733 132.8C822.933 116.4 819.2 109.867 800.533 91.4666C784.533 75.7333 781.333 70.5333 781.333 60.9333C781.333 50.9333 788.133 45.6 796.667 48.8C799.867 50 802.667 56.5333 802.667 62.6666V68H813.467H824.4L823.6 58.6666C822.8 48.4 819.333 39.4666 814.533 35.0666C807.733 28.8 794 25.7333 783.067 28Z" fill="black"/>
<path d="M268 100V170.667H278.667H289.333L289.6 138.933L290 107.333L301.6 106.933L313.333 106.533L313.6 138.267L314 170H324.667H335.333L335.733 99.6L336 29.3333H324.667H313.333V58V86.8L301.733 86.4L290 86L289.6 57.6L289.333 29.3333H278.667H268V100Z" fill="black"/>
<path d="M408 99.9999V170.8L419.067 170.4L430 170L430.4 99.5999L430.667 29.3333H419.333H408V99.9999Z" fill="black"/>
<path d="M502.667 100V170.667H532.667H562.667V160V149.333H544H525.333V128V106.667H540H554.667V96.6666V86.6666H540H525.333V68V49.3333H544H562.667V39.3333V29.3333H532.667H502.667V100Z" fill="black"/>
<path d="M892 100V170.667H922.667H953.333V160V149.333H934H914.667V128V106.667H930H945.333V96.6666V86.6666H930H914.667V68V49.3333H934H953.333V39.3333V29.3333H922.667H892V100Z" fill="black"/>
<path d="M1021.33 100V170.667H1032.67H1044V139.867V108.933L1051.07 109.867C1055.87 110.533 1059.07 111.867 1061.33 114.133C1064.53 117.333 1064.67 117.867 1065.47 143.733C1065.87 158.133 1066.4 170.133 1066.53 170.267C1066.53 170.533 1071.73 170.667 1077.87 170.667H1089.07L1088.53 162.933C1088.27 158.8 1087.73 146.267 1087.47 135.067C1086.8 111.867 1084.67 104.4 1077.47 100.8L1073.33 98.6666L1078.4 94C1084.93 88.1333 1086.67 82.2666 1086.67 65.8666C1086.67 50 1085.2 44.1333 1079.87 38C1073.73 31.0666 1066.13 29.3333 1041.73 29.3333H1021.33V100ZM1061.47 53.0666C1065.33 58 1066.13 72.2666 1063.2 83.0666C1062.13 86.4 1055.73 89.3333 1049.33 89.3333H1044V69.2V49.0666L1051.6 49.6C1057.2 50.1333 1059.73 50.9333 1061.47 53.0666Z" fill="black"/>
</svg>
